<svg id="livetype" xmlns="http://www.w3.org/2000/svg" viewBox="0 0 119.66 40"><defs><style>.cls-1{fill:#b7b7b7;}.cls-2{fill:#fff;}</style></defs><title>iOS_Netherlands</title><path class="cls-1" d="M110.13,0H7.52a13.51,13.51,0,0,0-2,.18,6.74,6.74,0,0,0-1.9.63A6.07,6.07,0,0,0,2,2,6.07,6.07,0,0,0,.82,3.62a6.74,6.74,0,0,0-.63,1.9,12.18,12.18,0,0,0-.17,2c0,.31,0,.62,0,.92V31.56c0,.31,0,.61,0,.92a12.18,12.18,0,0,0,.17,2,6.8,6.8,0,0,0,.63,1.91A6.19,6.19,0,0,0,2,38a6.07,6.07,0,0,0,1.62,1.18,6.74,6.74,0,0,0,1.9.63,13.51,13.51,0,0,0,2,.18H112.14a13.39,13.39,0,0,0,2-.18,6.91,6.91,0,0,0,1.91-.63A6.24,6.24,0,0,0,117.67,38a6.68,6.68,0,0,0,1.18-1.61,7.12,7.12,0,0,0,.62-1.91,13.39,13.39,0,0,0,.18-2c0-.31,0-.61,0-.92V8.44c0-.3,0-.61,0-.92a13.39,13.39,0,0,0-.18-2,7.05,7.05,0,0,0-.62-1.9A6.54,6.54,0,0,0,117.67,2,6.24,6.24,0,0,0,116.05.82a6.91,6.91,0,0,0-1.91-.63,13.39,13.39,0,0,0-2-.18h-2Z"/><path d="M8.44,39.13l-.9,0A11.52,11.52,0,0,1,5.67,39,5.89,5.89,0,0,1,4,38.4a5.16,5.16,0,0,1-1.39-1,5.19,5.19,0,0,1-1-1.4,5.79,5.79,0,0,1-.55-1.66,12.1,12.1,0,0,1-.16-1.87c0-.21,0-.92,0-.92V8.44s0-.69,0-.89a12,12,0,0,1,.16-1.87A5.69,5.69,0,0,1,1.6,4a5.06,5.06,0,0,1,1-1.4A5.52,5.52,0,0,1,4,1.6a5.79,5.79,0,0,1,1.66-.55A12.1,12.1,0,0,1,7.54.89H112.13a12.08,12.08,0,0,1,1.86.16,6,6,0,0,1,1.67.55A5.49,5.49,0,0,1,118.07,4a5.92,5.92,0,0,1,.54,1.65,13.68,13.68,0,0,1,.17,1.88v.89c0,.38,0,.74,0,1.1V30.46c0,.37,0,.72,0,1.08v.93a13.12,13.12,0,0,1-.17,1.85,5.85,5.85,0,0,1-.54,1.67,5.42,5.42,0,0,1-1,1.39,5.19,5.19,0,0,1-1.4,1A5.59,5.59,0,0,1,114,39a11.52,11.52,0,0,1-1.87.16l-.9,0H8.44Z"/><path class="cls-2" d="M24.77,20.3a4.92,4.92,0,0,1,2.36-4.15,5.08,5.08,0,0,0-4-2.16c-1.67-.18-3.3,1-4.16,1s-2.19-1-3.61-1a5.31,5.31,0,0,0-4.47,2.73C9,20.11,10.4,25,12.25,27.74c.93,1.33,2,2.81,3.43,2.75s1.9-.88,3.58-.88,2.14.88,3.59.85,2.43-1.33,3.32-2.67a11.09,11.09,0,0,0,1.52-3.09A4.77,4.77,0,0,1,24.77,20.3Z"/><path class="cls-2" d="M22,12.21a4.89,4.89,0,0,0,1.11-3.49,5,5,0,0,0-3.21,1.66,4.65,4.65,0,0,0-1.14,3.36A4.11,4.11,0,0,0,22,12.21Z"/><path class="cls-2" d="M37.82,9a2.71,2.71,0,0,1,2.88,3c0,2-1.06,3.08-2.89,3.08H35.6V9Zm-1.27,5.26h1.16a1.93,1.93,0,0,0,2-2.21,1.93,1.93,0,0,0-2-2.19H36.56Z"/><path class="cls-2" d="M41.65,12.77a2.19,2.19,0,1,1,4.36,0,2.19,2.19,0,1,1-4.36,0Zm3.42,0c0-1-.45-1.59-1.24-1.59s-1.24.59-1.24,1.59.45,1.59,1.24,1.59S45.07,13.77,45.07,12.77Z"/><path class="cls-2" d="M51.68,15.08h-1l-.95-3.4h-.07l-1,3.4h-.94l-1.27-4.62h.92L48.3,14h.07l1-3.53h.87l1,3.53h.07L52,10.46H53Z"/><path class="cls-2" d="M53.9,10.46h.88v.73h.07a1.38,1.38,0,0,1,1.38-.82,1.49,1.49,0,0,1,1.59,1.72v3h-.91V12.32c0-.74-.32-1.11-1-1.11a1.06,1.06,0,0,0-1.11,1.17v2.7H53.9Z"/><path class="cls-2" d="M59.16,8.66h.91v6.42h-.91Z"/><path class="cls-2" d="M61.21,12.77a2.19,2.19,0,1,1,4.35,0,2.19,2.19,0,1,1-4.35,0Zm3.42,0c0-1-.45-1.59-1.24-1.59s-1.24.59-1.24,1.59.44,1.59,1.24,1.59S64.63,13.77,64.63,12.77Z"/><path class="cls-2" d="M66.4,13.77c0-.83.62-1.31,1.72-1.37l1.25-.08v-.4c0-.48-.33-.76-.95-.76s-.86.19-1,.51h-.89c.1-.79.84-1.3,1.89-1.3s1.81.58,1.81,1.55v3.16H69.4v-.65h-.07a1.56,1.56,0,0,1-1.39.73A1.4,1.4,0,0,1,66.4,13.77Zm3-.39V13l-1.12.08c-.64,0-.93.25-.93.66s.36.66.86.66A1.08,1.08,0,0,0,69.37,13.38Z"/><path class="cls-2" d="M71.36,12.77c0-1.46.75-2.39,1.92-2.39a1.53,1.53,0,0,1,1.41.81h.07V8.66h.91v6.42H74.8v-.73h-.07a1.61,1.61,0,0,1-1.45.81C72.1,15.16,71.36,14.23,71.36,12.77Zm.94,0c0,1,.46,1.57,1.23,1.57s1.25-.6,1.25-1.57-.48-1.57-1.24-1.57S72.3,11.8,72.3,12.77Z"/><path class="cls-2" d="M79.31,9.1a.59.59,0,1,1,.59.55A.56.56,0,0,1,79.31,9.1Zm.13,1.36h.91v4.62h-.91Z"/><path class="cls-2" d="M81.7,10.46h.87v.74h.07A1.39,1.39,0,0,1,84,10.37a1.5,1.5,0,0,1,1.6,1.72v3h-.91V12.32c0-.74-.32-1.11-1-1.11a1.06,1.06,0,0,0-1.1,1.17v2.7H81.7Z"/><path class="cls-2" d="M89.06,12.77c0-1.46.75-2.38,1.92-2.38a1.51,1.51,0,0,1,1.41.81h.07V8.66h.91v6.42H92.5v-.73h-.07a1.61,1.61,0,0,1-1.46.81C89.8,15.16,89.06,14.23,89.06,12.77Zm.94,0c0,1,.46,1.57,1.23,1.57s1.25-.6,1.25-1.57S92,11.2,91.23,11.2,90,11.8,90,12.77Z"/><path class="cls-2" d="M98.65,13.83a1.86,1.86,0,0,1-2,1.34,2.1,2.1,0,0,1-2.13-2.38,2.14,2.14,0,0,1,2.13-2.42c1.28,0,2.06.88,2.06,2.33V13H95.45v.05a1.22,1.22,0,0,0,1.23,1.32,1.11,1.11,0,0,0,1.1-.56Zm-3.2-1.48h2.33a1.11,1.11,0,0,0-1.14-1.2A1.18,1.18,0,0,0,95.45,12.35Z"/><path class="cls-2" d="M43.25,27.36h-4.7l-1.14,3.28h-2L39.9,18.29H42l4.46,12.35h-2ZM39,25.75h3.73L41,20.53h-.15Z"/><path class="cls-2" d="M56.1,26c0,3-1.5,4.82-3.85,4.82a3,3,0,0,1-2.87-1.56h-.15v4.51H47.39V21.32h1.78v1.54h.13a3.25,3.25,0,0,1,2.93-1.7C54.6,21.16,56.1,23,56.1,26Zm-1.89,0c0-2-.94-3.16-2.49-3.16S49.2,24,49.2,26s1,3.16,2.51,3.16S54.21,28,54.21,26Z"/><path class="cls-2" d="M66.05,26c0,3-1.49,4.82-3.85,4.82a3.06,3.06,0,0,1-2.87-1.56h-.14v4.51H57.35V21.32h1.77v1.54h.14a3.24,3.24,0,0,1,2.92-1.7C64.56,21.16,66.05,23,66.05,26Zm-1.89,0c0-2-.93-3.16-2.49-3.16S59.15,24,59.15,26s1,3.16,2.51,3.16S64.16,28,64.16,26Z"/><path class="cls-2" d="M72.66,27.32c.17,1.17,1.31,1.91,3,1.91s2.67-.79,2.67-1.89c0-.94-.72-1.51-2.36-1.89l-1.59-.38c-2.23-.53-3.25-1.61-3.25-3.42,0-2.2,1.79-3.66,4.49-3.66,2.51,0,4.34,1.46,4.45,3.54H78.18a2.36,2.36,0,0,0-2.61-1.85c-1.52,0-2.53.73-2.53,1.84,0,.88.65,1.39,2.26,1.77l1.36.33c2.54.59,3.58,1.62,3.58,3.47,0,2.37-1.83,3.85-4.76,3.85-2.74,0-4.58-1.42-4.72-3.62Z"/><path class="cls-2" d="M84.07,19v2.36h2v1.55h-2V27.7c0,1,.4,1.41,1.32,1.41a5.12,5.12,0,0,0,.7-.05v1.53a5.13,5.13,0,0,1-1,.1c-2,0-2.86-.72-2.86-2.52V22.91H80.75V21.36h1.48V19Z"/><path class="cls-2" d="M86.73,26c0-3,1.68-4.83,4.4-4.83S95.52,23,95.52,26s-1.67,4.85-4.39,4.85S86.73,29,86.73,26Zm6.9,0c0-2-.91-3.2-2.5-3.2S88.63,24,88.63,26s.9,3.21,2.5,3.21S93.63,28,93.63,26Z"/><path class="cls-2" d="M96.77,21.32h1.77v1.43h.14a2.52,2.52,0,0,1,2.51-1.59,4,4,0,0,1,.83.08v1.81a5.31,5.31,0,0,0-1-.11,2.18,2.18,0,0,0-2.38,2.19v5.51H96.77Z"/><path class="cls-2" d="M110.47,28.12c-.42,1.67-1.91,2.7-4,2.7-2.67,0-4.31-1.83-4.31-4.81s1.67-4.87,4.3-4.87,4.16,1.77,4.16,4.69v.65H104v.1a2.46,2.46,0,0,0,2.48,2.67,2.25,2.25,0,0,0,2.22-1.13Zm-6.47-3h4.71a2.26,2.26,0,0,0-2.3-2.42A2.38,2.38,0,0,0,104,25.12Z"/></svg>